<svg xmlns="http://www.w3.org/2000/svg" 
width="24" height="24" viewBox="0 0 24 24" 
fill="none" stroke="#F4EDE8" stroke-width="2" stroke-linecap="round" stroke-linejoin="round" class="feather feather-phone">
<path d="M22 16.92v3a2 2 0 0 1-2.18 2 19.86 19.86 0 0 1-8.63-3.16 19.48 19.48 0 0 1-6-6A19.86 19.86 0 0 1 3.09 4.18 2 2 0 0 1 5 2h3a2 2 0 0 1 2 1.72 12.34 12.34 0 0 0 .7 2.81 2 2 0 0 1-.45 2.11L9.03 9.03a16 16 0 0 0 6 6l1.39-1.39a2 2 0 0 1 2.11-.45 12.34 12.34 0 0 0 2.81.7A2 2 0 0 1 22 16.92z"></path>
</svg>
